PathFileType	3	(X/Y/Z)	C:\Users\koon_\Desktop\
DataRate	CameraRate	NumFrames	NumMarkers	Units	OrigDataRate	OrigDataStartFrame	OrigNumFrames
100.0	100.0	8	27	mm	100.0	1	2034	
Frame#	Time	GM:LFHD			GM:RFHD			GM:LBHD			GM:RBHD			GM:C7			GM:T10			GM:CLAV			GM:STRN			GM:RBAK			GM:LSHO			GM:LUPA			GM:LELB			GM:LFRA			GM:LWRA			GM:LWRB			GM:LFIN			GM:RSHO			GM:RUPA			GM:RELB			GM:RFRA			GM:RWRA			GM:RWRB			GM:RFIN			GM:LASI			GM:RASI			GM:LPSI			GM:RPSI			
		X1	Y1	Z1	X2	Y2	Z2	X3	Y3	Z3	X4	Y4	Z4	X5	Y5	Z5	X6	Y6	Z6	X7	Y7	Z7	X8	Y8	Z8	X9	Y9	Z9	X10	Y10	Z10	X11	Y11	Z11	X12	Y12	Z12	X13	Y13	Z13	X14	Y14	Z14	X15	Y15	Z15	X16	Y16	Z16	X17	Y17	Z17	X18	Y18	Z18	X19	Y19	Z19	X20	Y20	Z20	X21	Y21	Z21	X22	Y22	Z22	X23	Y23	Z23	X24	Y24	Z24	X25	Y25	Z25	X26	Y26	Z26	X27	Y27	Z27	
1	0	64.341965	1596.0083	-105.00923	-89.592964	1587.6274	-104.58961	65.038879	1576.6121	-236.92589	-98.694336	1570.9138	-219.3372	-15.850796	1416.3119	-279.5517	-13.259222	1223.6804	-335.00674	0.21369319	1344.2007	-126.98421	1.6714076	1197.1932	-86.449417	-109.24187	1305.674	-326.58984	163.19562	1385.3807	-220.16048	225.97844	1278.5879	-220.66287	249.16002	1065.8298	-254.54813	221.77898	965.67664	-148.11694	219.78972	898.66473	-115.54764	265.55307	875.25842	-158.61925	229.70288	823.23639	-76.803574	-192.25371	1379.3892	-178.11688	-253.73409	1148.1025	-172.31863	-284.39285	1060.818	-213.89905	-252.95226	1012.1844	-138.37112	-233.4008	888.53693	-93.904587	-277.80341	866.62292	-133.96373	-243.74989	820.23737	-53.082272	138.38777	903.97498	-107.16543	-158.76764	904.58423	-99.748062	63.709095	938.92523	-318.51016	-99.975029	925.44507	-315.70084
2	0.01	64.424736	1595.9896	-105.11136	-89.500694	1587.6324	-104.71037	65.13517	1576.5712	-236.9455	-98.58551	1570.9283	-219.37807	-15.76549	1416.311	-279.55164	-13.176486	1223.6534	-335.00482	0.29018965	1344.2021	-126.99043	1.6714076	1197.1932	-86.449417	-109.15857	1305.6735	-326.60281	163.26651	1385.3424	-220.1485	226.03484	1278.5675	-220.63864	249.20908	1065.8073	-254.45125	221.77667	965.72681	-147.93106	219.72038	898.67236	-115.38065	265.53619	875.23669	-158.41084	229.65242	823.21295	-76.645599	-192.22383	1379.3881	-178.20911	-253.69441	1148.1418	-172.24725	-284.38464	1060.8815	-213.8903	-253.01352	1012.2104	-138.38115	-233.45357	888.58185	-93.814468	-277.85696	866.66998	-133.87585	-243.7614	820.22388	-53.030094	138.38777	903.97498	-107.16543	-158.75633	904.5896	-99.711441	63.709095	938.92523	-318.51016	-99.949577	925.4447	-315.70047
3	0.02	64.514259	1595.9552	-105.10809	-89.407242	1587.6428	-104.71653	65.228561	1576.5521	-237.0257	-98.47052	1570.9398	-219.38759	-15.711475	1416.2941	-279.53534	-13.176486	1223.6534	-335.00482	0.32831785	1344.1765	-127.00528	1.6809387	1197.1646	-86.471764	-109.05454	1305.6683	-326.61032	163.30801	1385.313	-220.19641	226.11766	1278.5304	-220.63654	249.20578	1065.7203	-254.33627	221.76414	965.68872	-147.83356	219.71642	898.68121	-115.192	265.49655	875.19897	-158.23396	229.593	823.23999	-76.455215	-192.14211	1379.4229	-178.22536	-253.61627	1148.1333	-172.26685	-284.36731	1060.8955	-213.81708	-253.02037	1012.2558	-138.34315	-233.44389	888.64618	-93.804459	-277.87592	866.70972	-133.83301	-243.7515	820.14825	-53.023136	138.3325	904.04004	-107.08463	-158.75633	904.5896	-99.711441	63.733711	938.87781	-318.47314	-99.918152	925.42432	-315.67224
4	0.03	64.60038	1595.9403	-105.10966	-89.319557	1587.6528	-104.70313	65.308205	1576.5211	-237.02649	-98.415405	1570.9636	-219.44965	-15.656529	1416.28	-279.55573	-13.097926	1223.6333	-335.01276	0.40196443	1344.1647	-126.953	1.6990446	1197.1931	-86.465637	-108.99429	1305.6487	-326.64218	163.37729	1385.2579	-220.15173	226.16341	1278.5184	-220.61375	249.22839	1065.6648	-254.24666	221.87773	965.7243	-147.69554	219.67491	898.66534	-115.07677	265.49377	875.16699	-158.07971	229.48405	823.24091	-76.286751	-192.09074	1379.4222	-178.25456	-253.59244	1148.1541	-172.2728	-284.29578	1060.8866	-213.83284	-253.02037	1012.2558	-138.34315	-233.51007	888.71826	-93.776024	-277.86069	866.74359	-133.77388	-243.80963	820.11975	-53.006653	138.32285	904.01288	-107.08287	-158.75633	904.5896	-99.711441	63.76656	938.89178	-318.42688	-99.940956	925.42737	-315.69473
5	0.04	64.662689	1595.942	-105.18052	-89.237686	1587.6453	-104.8318	65.441971	1576.517	-237.0641	-98.337608	1570.9604	-219.50809	-15.578382	1416.2659	-279.55615	-13.064857	1223.6602	-335.01828	0.4098517	1344.1438	-127.00375	1.7031126	1197.1738	-86.473732	-108.94843	1305.6465	-326.61658	163.44243	1385.2098	-220.19794	226.20123	1278.4469	-220.63167	249.24973	1065.6058	-254.19417	221.74753	965.63904	-147.55539	219.64435	898.59998	-114.93761	265.42883	875.117	-157.96312	229.39618	823.28247	-76.104416	-192.03345	1379.4189	-178.25331	-253.56081	1148.1661	-172.26579	-284.34305	1060.9105	-213.82222	-253.02145	1012.2801	-138.34697	-233.52338	888.64819	-93.72493	-277.91412	866.76923	-133.77806	-243.78926	820.07587	-53.030029	138.3466	904.02649	-107.00765	-158.75391	904.58997	-99.722267	63.778526	938.84967	-318.39041	-99.92205	925.42456	-315.67194
6	0.05	64.750946	1595.9481	-105.17675	-89.123962	1587.7101	-104.8566	65.495087	1576.4951	-237.13373	-98.219696	1570.9879	-219.54671	-15.476471	1416.2672	-279.55692	-13.017308	1223.6428	-335.06723	0.49850118	1344.1484	-126.96028	1.7767751	1197.1034	-86.494667	-108.89698	1305.65	-326.64618	163.5123	1385.1902	-220.21608	226.26012	1278.4128	-220.59999	249.27412	1065.5959	-254.05496	221.72243	965.60034	-147.45995	219.55995	898.5993	-114.85594	265.41663	875.10938	-157.80025	229.34393	823.30524	-75.943115	-191.99573	1379.4282	-178.26718	-253.54013	1148.176	-172.25087	-284.3186	1060.9252	-213.81462	-252.99529	1012.2738	-138.37242	-233.47719	888.73236	-93.696693	-277.91077	866.76874	-133.74234	-243.74385	820.05646	-52.999748	138.38309	903.97345	-106.97057	-158.80074	904.5921	-99.740906	63.763313	938.87769	-318.34671	-99.928284	925.42084	-315.65189
7	0.06	64.813606	1595.9492	-105.24815	-89.063347	1587.7002	-104.86326	65.597969	1576.4895	-237.13663	-98.2257	1570.9722	-219.57213	-15.421199	1416.2539	-279.5748	-12.994618	1223.6353	-335.01361	0.50843906	1344.1759	-126.95053	1.7745409	1197.0839	-86.496826	-108.82461	1305.6499	-326.64957	163.52901	1385.1508	-220.18327	226.34795	1278.3864	-220.54344	249.28601	1065.525	-254.01431	221.71231	965.63043	-147.34363	219.4944	898.52167	-114.74868	265.41544	875.08038	-157.69411	229.30896	823.32159	-75.767052	-191.96684	1379.4406	-178.35477	-253.50737	1148.1848	-172.28944	-284.30707	1060.9309	-213.91551	-252.88916	1012.2962	-138.27299	-233.48131	888.70074	-93.704926	-277.88522	866.76563	-133.73926	-243.69662	820.00415	-52.983532	138.31996	903.93372	-106.98868	-158.7883	904.56665	-99.748779	63.74926	938.84644	-318.39203	-99.92717	925.41583	-315.61819
8	0.07	64.905678	1595.9305	-105.24606	-88.960609	1587.6938	-104.90068	65.678925	1576.4651	-237.17537	-97.978188	1570.9384	-219.64632	-15.347501	1416.2422	-279.57712	-12.962521	1223.6105	-335.00739	0.54565698	1344.1453	-127.00192	1.8131428	1197.1458	-86.528824	-108.79796	1305.6503	-326.65063	163.58284	1385.0853	-220.20253	226.37402	1278.314	-220.5166	249.25868	1065.4736	-253.92542	221.69801	965.59808	-147.24812	219.48753	898.53357	-114.58619	265.42505	875.0318	-157.54697	229.28293	823.31091	-75.670921	-191.90779	1379.4547	-178.29546	-253.47287	1148.1974	-172.28114	-284.24026	1060.965	-213.82787	-252.89961	1012.3179	-138.27478	-233.44316	888.71906	-93.688484	-277.87585	866.83228	-133.73026	-243.68121	819.98804	-52.977348	138.38545	903.85718	-106.96979	-158.80069	904.54602	-99.727364	63.696712	938.85254	-318.34946	-99.937683	925.39868	-315.61996
